<svg width="126" height="56" viewBox="0 0 126 56" fill="none" xmlns="http://www.w3.org/2000/svg">
<g id="Group 20">
<g id="Group 19">
<g id="Group">
<path id="Vector" d="M13.1995 35.5197C12.8273 35.5197 12.4551 35.3569 12.2165 35.0314C12.016 34.7633 7.18665 28.4251 7.18665 21.4071C7.18665 14.0444 13.8485 12.3881 16.1773 12.3881C20.6249 12.3881 23.5932 15.471 26.4755 18.4582C29.0143 21.0911 31.4003 23.5805 34.5308 23.5805H34.6263C36.4206 23.5805 37.8904 23.0156 39.0166 21.905C40.4101 20.5167 41.04 18.4678 41.04 17.0603C41.04 16.371 41.5936 15.8061 42.2903 15.8061C42.987 15.8061 43.5406 16.3614 43.5406 17.0603C43.5406 18.8507 42.8152 21.656 40.7823 23.6858C39.1789 25.2751 37.0219 26.1081 34.5404 26.089C30.36 26.089 27.4777 23.1018 24.6908 20.2103C22.0661 17.4816 19.575 14.8965 16.1868 14.8965C15.6524 14.8965 13.944 15.1072 12.4073 16.0838C10.6035 17.2327 9.68723 19.0231 9.68723 21.4167C9.68723 27.573 14.1539 33.4516 14.2017 33.5091C14.6216 34.0548 14.5166 34.8399 13.9726 35.2612C13.7435 35.4335 13.4763 35.5197 13.2091 35.5197" fill="#E1585D"/>
<path id="Vector_2" d="M29.9114 54.057C29.5678 54.057 29.2337 53.9133 28.9856 53.6453C28.5274 53.1378 28.5656 52.3432 29.0715 51.8836C33.9104 47.489 38.9211 42.7688 42.7292 38.0008C47.0337 32.6008 49.1334 28.0339 49.1334 24.0222C49.1334 19.417 46.8714 16.6212 44.9721 15.0989C42.3952 13.0213 39.3888 12.2841 37.4322 12.2841C35.6188 12.2841 33.5095 12.9638 33.4904 12.9638C32.8319 13.1745 32.1352 12.8202 31.9252 12.1596C31.7152 11.5085 32.0683 10.8 32.7269 10.5894C32.8319 10.5607 35.2275 9.78516 37.4322 9.78516C43.1587 9.78516 51.634 14.3138 51.634 24.0318C51.634 33.7498 40.849 44.5784 30.7512 53.741C30.5126 53.9612 30.2168 54.0665 29.9114 54.0665" fill="#E1585D"/>
<path id="Vector_3" d="M27.6685 12.5041C24.4235 12.5041 21.3694 11.4318 18.8306 9.41159C16.3682 7.44885 14.612 4.68186 13.8771 1.63721L13.5431 0.268082L14.9365 0.105318C15.4997 0.0382974 16.0628 0 16.6259 0C19.8709 0 22.9251 1.07233 25.4638 3.09252C27.9262 5.05526 29.6824 7.82225 30.4173 10.8669L30.7513 12.236L29.3579 12.3988C28.7948 12.4658 28.2316 12.4945 27.6685 12.4945M16.7499 2.49891C17.4944 4.43293 18.7542 6.15631 20.3863 7.45842C22.4383 9.10521 24.9103 9.98605 27.5445 10.0052C26.8 8.08076 25.5402 6.3478 23.9081 5.04568C21.8561 3.40847 19.3842 2.52763 16.7499 2.49891Z" fill="#A5D04F"/>
<path id="Vector_4" d="M1.25029 49.2591C0.563109 49.2591 0 48.7038 0 48.0049C0 47.3059 0.563109 46.7506 1.25029 46.7506C6.70959 46.7506 12.0353 44.8357 16.2443 41.3411C20.396 37.9039 23.2688 33.1072 24.3282 27.8508C24.4618 27.1711 25.1204 26.7402 25.798 26.8743C26.4757 27.0083 26.9052 27.6689 26.7715 28.3487C25.5976 34.1699 22.4194 39.4645 17.8286 43.2751C13.1806 47.1336 7.29179 49.2495 1.25029 49.2495" fill="#E1585D"/>
<path id="Vector_5" d="M8.88488 55.9904C8.32177 55.9904 7.81592 55.6074 7.67276 55.0329C7.51051 54.3627 7.92091 53.683 8.58901 53.5202C14.0674 52.1894 19.0972 49.3745 23.1344 45.382C27.1621 41.3895 30.0349 36.3821 31.4283 30.9056C31.6001 30.2354 32.2778 29.8332 32.9459 30.0056C33.614 30.1779 34.0148 30.8577 33.843 31.5279C32.335 37.4449 29.2332 42.8544 24.881 47.1628C20.5193 51.4809 15.0886 54.5255 9.1712 55.9617C9.07576 55.9904 8.97077 56 8.87533 56" fill="#E1585D"/>
</g>
<g id="Group_2">
<path id="Vector_6" d="M90.6329 19.6361C90.6329 25.6296 86.2139 29.3253 79.0748 29.3253H70.5328V37.1859H65.4934V9.95642H79.0844C86.2235 9.95642 90.6424 13.6138 90.6424 19.6457M85.5649 19.6457C85.5649 16.218 83.2743 14.2362 78.8553 14.2362H70.5423V25.0552H78.8553C83.2743 25.0552 85.5649 23.0733 85.5649 19.6457Z" fill="#31A4A0"/>
<path id="Vector_7" d="M118.186 9.95642V37.1859H113.147V25.5147H98.0862V37.1859H93.0469V9.95642H98.0862V21.1967H113.147V9.95642H118.186Z" fill="#31A4A0"/>
<path id="Vector_8" d="M64.1761 40.7579V47.4983H62.9258V44.6068H59.4517V47.4983H58.2014V40.7579H59.4517V43.5345H62.9258V40.7579H64.1761Z" fill="#31A4A0"/>
<path id="Vector_9" d="M71.229 46.8559C70.6277 47.3251 69.6255 47.6027 68.5279 47.6027C66.5427 47.6027 65.512 46.7793 65.512 45.64C65.512 44.8645 65.9796 44.3092 66.6477 44.0602C66.1228 43.7826 65.7983 43.256 65.7983 42.6145C65.7983 41.5709 66.7241 40.6709 68.6711 40.6709C69.5301 40.6709 70.37 40.8624 70.9713 41.1688L70.6181 42.1645C70.0168 41.8485 69.3774 41.7241 68.7284 41.7241C67.5926 41.7241 67.0677 42.1262 67.0677 42.7007C67.0677 43.2751 67.4781 43.5911 68.2798 43.5911H70.055V44.6347H68.213C67.3254 44.6347 66.7813 44.9315 66.7813 45.573C66.7813 46.1666 67.3349 46.5783 68.5948 46.5783C69.4442 46.5783 70.2841 46.3389 70.8376 45.9272L71.2385 46.8942L71.229 46.8559Z" fill="#31A4A0"/>
<path id="Vector_10" d="M77.949 43.762V47.496H76.6988V45.763H73.2056V47.496H71.9744V43.762C71.9744 41.7418 73.1769 40.6599 74.9617 40.6599C76.7465 40.6599 77.949 41.7418 77.949 43.762ZM76.6988 44.7194V43.6471C76.6988 42.3641 76.0211 41.761 74.9522 41.761C73.8832 41.761 73.2056 42.3641 73.2056 43.6471V44.7194H76.6988Z" fill="#31A4A0"/>
<path id="Vector_11" d="M79.7056 40.7579H80.9463V46.4355H84.4681V47.4983H79.7056V40.7579Z" fill="#31A4A0"/>
<path id="Vector_12" d="M96.732 40.7579V47.4983H95.4817V44.6068H92.0076V47.4983H90.7573V40.7579H92.0076V43.5345H95.4817V40.7579H96.732Z" fill="#31A4A0"/>
<path id="Vector_13" d="M98.0571 44.1258C98.0571 42.1152 99.5938 40.6599 101.655 40.6599C102.753 40.6599 103.688 41.0525 104.318 41.7897L103.507 42.5556C103.02 42.029 102.409 41.761 101.713 41.761C100.319 41.761 99.3074 42.7471 99.3074 44.1354C99.3074 45.5237 100.319 46.5098 101.713 46.5098C102.409 46.5098 103.02 46.2513 103.507 45.7056L104.318 46.4715C103.698 47.1992 102.753 47.6013 101.646 47.6013C99.5938 47.6013 98.0571 46.146 98.0571 44.1354" fill="#31A4A0"/>
<path id="Vector_14" d="M111.438 43.762V47.496H110.188V45.763H106.695V47.496H105.464V43.762C105.464 41.7418 106.666 40.6599 108.451 40.6599C110.236 40.6599 111.438 41.7418 111.438 43.762ZM110.188 44.7194V43.6471C110.188 42.3641 109.501 41.761 108.441 41.761C107.382 41.761 106.695 42.3641 106.695 43.6471V44.7194H110.188Z" fill="#31A4A0"/>
<path id="Vector_15" d="M117.585 47.4983L116.211 45.526C116.125 45.5355 116.039 45.5355 115.953 45.5355H114.435V47.4983H113.185V40.7579H115.953C117.719 40.7579 118.816 41.6675 118.816 43.1515C118.816 44.176 118.301 44.9228 117.385 45.2866L118.931 47.4983H117.585ZM115.896 41.8111H114.435V44.5015H115.896C116.993 44.5015 117.556 44.0036 117.556 43.1515C117.556 42.2994 116.993 41.8111 115.896 41.8111Z" fill="#31A4A0"/>
<path id="Vector_16" d="M125.45 46.8559C124.849 47.3251 123.847 47.6027 122.749 47.6027C120.764 47.6027 119.733 46.7793 119.733 45.64C119.733 44.8645 120.201 44.3092 120.869 44.0602C120.344 43.7826 120.02 43.256 120.02 42.6145C120.02 41.5709 120.946 40.6709 122.893 40.6709C123.752 40.6709 124.591 40.8624 125.193 41.1688L124.84 42.1645C124.238 41.8485 123.599 41.7241 122.95 41.7241C121.814 41.7241 121.289 42.1262 121.289 42.7007C121.289 43.2751 121.7 43.5911 122.501 43.5911H124.276V44.6347H122.434C121.547 44.6347 121.003 44.9315 121.003 45.573C121.003 46.1666 121.556 46.5783 122.816 46.5783C123.666 46.5783 124.506 46.3389 125.059 45.9272L125.46 46.8942L125.45 46.8559Z" fill="#31A4A0"/>
<path id="Vector_17" d="M89.6778 40.7579H87.5208H86.2705H84.104V42.0026H86.2705V47.4983H87.5208V42.0026H89.6778V40.7579Z" fill="#31A4A0"/>
</g>
</g>
</g>
</svg>
