<svg width="63" height="63" viewBox="0 0 63 63" fill="none" xmlns="http://www.w3.org/2000/svg">
<path d="M31.4991 63C14.1301 63 0 48.8699 0 31.5009C0 14.1301 14.1301 0 31.4991 0C48.8681 0 62.9983 14.1301 62.9983 31.5009C63 48.8699 48.8699 63 31.4991 63ZM31.4991 2.48668C15.5006 2.48668 2.48668 15.5023 2.48668 31.5009C2.48668 47.4977 15.5023 60.5133 31.4991 60.5133C47.496 60.5133 60.5116 47.4977 60.5116 31.5009C60.5133 15.5023 47.4977 2.48668 31.4991 2.48668Z" fill="#1B4D80"/>
<path fill-rule="evenodd" clip-rule="evenodd" d="M43.4858 35.6709C43.4822 35.805 43.4272 35.9325 43.3326 36.0262C43.2379 36.1198 43.111 36.1722 42.9788 36.1722C42.8467 36.1722 42.7198 36.1198 42.6251 36.0262C42.5304 35.9325 42.4754 35.805 42.4718 35.6709C42.4718 35.25 42.3073 34.8464 42.0145 34.5489C41.7216 34.2513 41.3244 34.0842 40.9102 34.0842C40.496 34.0842 40.0988 34.2513 39.806 34.5489C39.5131 34.8464 39.3486 35.25 39.3486 35.6709C39.3486 36.8499 40.1829 37.0494 41.0191 37.2492C42.2514 37.5439 43.4865 37.839 43.4865 39.8525C43.4865 40.4573 43.2803 41.0435 42.9031 41.5114C42.5259 41.9792 42.0009 42.3 41.4174 42.4192V43.5061C41.4138 43.6403 41.3588 43.7678 41.2641 43.8614C41.1694 43.9551 41.0425 44.0074 40.9104 44.0074C40.7783 44.0074 40.6513 43.9551 40.5567 43.8614C40.462 43.7678 40.407 43.6403 40.4034 43.5061V42.4192C39.8199 42.2999 39.295 41.9791 38.9179 41.5112C38.5408 41.0434 38.3347 40.4573 38.3346 39.8525C38.3328 39.7837 38.3445 39.7152 38.3692 39.6511C38.3938 39.587 38.4309 39.5285 38.4781 39.4792C38.5254 39.4299 38.5819 39.3906 38.6443 39.3639C38.7068 39.3371 38.7738 39.3233 38.8416 39.3233C38.9093 39.3233 38.9764 39.3371 39.0388 39.3639C39.1013 39.3906 39.1578 39.4299 39.205 39.4792C39.2523 39.5285 39.2893 39.587 39.314 39.6511C39.3386 39.7152 39.3504 39.7837 39.3486 39.8525C39.3486 40.2734 39.5131 40.6769 39.806 40.9745C40.0988 41.2721 40.496 41.4392 40.9102 41.4392C41.3244 41.4392 41.7216 41.2721 42.0145 40.9745C42.3073 40.6769 42.4718 40.2734 42.4718 39.8525C42.4718 38.6535 41.6293 38.4521 40.7886 38.2511C39.5616 37.9576 38.3346 37.6644 38.3346 35.6709C38.3347 35.0661 38.5408 34.48 38.9179 34.0121C39.295 33.5443 39.8199 33.2235 40.4034 33.1042V32.0173C40.407 31.8831 40.462 31.7556 40.5567 31.662C40.6513 31.5683 40.7783 31.5159 40.9104 31.5159C41.0425 31.5159 41.1694 31.5683 41.2641 31.662C41.3588 31.7556 41.4138 31.8831 41.4174 32.0173V33.1042C42.0009 33.2234 42.5259 33.5442 42.9031 34.012C43.2803 34.4799 43.4865 35.066 43.4865 35.6709H43.4858ZM24.4014 13C23.9187 13.0011 23.4561 13.1965 23.115 13.5435C22.7739 13.8905 22.582 14.3607 22.5814 14.8511V18.4155C22.581 18.6998 22.6458 18.9802 22.7706 19.2346H18.8201C18.3375 19.2357 17.8751 19.431 17.534 19.7777C17.1929 20.1244 17.0009 20.5943 17 21.0846V24.6494C17.0011 25.1333 17.1883 25.5976 17.5218 25.9431C17.8553 26.2885 18.3086 26.4878 18.7847 26.4982C18.6596 26.7528 18.5946 27.0335 18.5947 27.318V30.8805C18.5953 31.371 18.7872 31.8412 19.1284 32.1882C19.4695 32.5351 19.9321 32.7306 20.4148 32.7317H21.1759C21.0513 32.9861 20.9865 33.2665 20.9866 33.5507V37.1155C20.9867 37.3649 21.0365 37.6117 21.1332 37.841C21.2298 38.0703 21.3712 38.2773 21.5488 38.4495C21.3712 38.6217 21.2298 38.8287 21.1332 39.0581C21.0365 39.2874 20.9867 39.5343 20.9866 39.7838V43.3482C20.9877 43.8383 21.1798 44.308 21.5209 44.6546C21.862 45.0012 22.3243 45.1963 22.8067 45.1974H35.5118C36.7615 46.1337 38.2264 46.7291 39.7669 46.927C41.3073 47.1249 42.872 46.9187 44.3118 46.3281C45.7515 45.7374 47.0185 44.7819 47.9918 43.5528C48.9651 42.3236 49.6124 40.8616 49.872 39.3062C50.1316 37.7508 49.9949 36.1537 49.4748 34.6672C48.9547 33.1807 48.0686 31.8543 46.9009 30.8144C45.7333 29.7745 44.323 29.0557 42.8045 28.7266C41.2859 28.3975 39.7097 28.4689 38.226 28.9342V27.318C38.2256 26.8341 38.0389 26.3696 37.7058 26.0237C37.3727 25.6778 36.9197 25.4779 36.4435 25.4669C36.5681 25.2123 36.6329 24.9318 36.6328 24.6475V21.0846C36.6331 20.8004 36.5683 20.5199 36.4435 20.2656H40.3941C40.8768 20.2645 41.3394 20.069 41.6806 19.722C42.0217 19.3751 42.2136 18.9049 42.2142 18.4144V14.8511C42.2136 14.3607 42.0217 13.8905 41.6806 13.5435C41.3394 13.1965 40.8768 13.0011 40.3941 13H24.4014ZM40.3941 14.0314C40.6077 14.0323 40.8123 14.1191 40.9633 14.2726C41.1143 14.4262 41.1994 14.6341 41.2002 14.8511V18.4155C41.199 18.6323 41.1136 18.8397 40.9627 18.9929C40.8117 19.146 40.6074 19.2325 40.3941 19.2334H24.4014C24.1879 19.2325 23.9835 19.1458 23.8325 18.9925C23.6815 18.8391 23.5963 18.6313 23.5953 18.4144V14.8511C23.5961 14.6341 23.6813 14.4262 23.8323 14.2726C23.9832 14.1191 24.1878 14.0323 24.4014 14.0314H40.3941ZM34.8127 20.2648C35.0266 20.2655 35.2315 20.3521 35.3828 20.5056C35.5341 20.6592 35.6195 20.8673 35.6203 21.0846V24.6494C35.6189 24.8662 35.5332 25.0738 35.382 25.2269C35.2308 25.3799 35.0262 25.4662 34.8127 25.4669H18.8201C18.6066 25.4658 18.4022 25.3792 18.2512 25.2258C18.1003 25.0724 18.015 24.8647 18.014 24.6479V21.0846C18.015 20.8677 18.1003 20.66 18.2512 20.5066C18.4022 20.3533 18.6066 20.2666 18.8201 20.2656L34.8127 20.2648ZM37.2132 29.3203C36.0005 29.8702 34.9207 30.6824 34.049 31.7003H20.4148C20.2013 31.6993 19.9968 31.6127 19.8459 31.4593C19.6949 31.306 19.6097 31.0982 19.6087 30.8813V27.318C19.6097 27.1011 19.6949 26.8934 19.8459 26.74C19.9968 26.5866 20.2013 26.5 20.4148 26.499H36.4075C36.6209 26.5 36.8254 26.5866 36.9763 26.74C37.1272 26.8934 37.2123 27.1012 37.2132 27.318V29.3203ZM33.2838 32.7298C32.293 34.2759 31.7827 36.0891 31.8192 37.9338H22.8067C22.5932 37.9327 22.3888 37.846 22.2379 37.6927C22.0869 37.5393 22.0017 37.3316 22.0006 37.1147V33.5488C22.0017 33.3319 22.0869 33.1243 22.2379 32.9709C22.3888 32.8175 22.5932 32.7309 22.8067 32.7298H33.2838ZM31.894 38.9632C32.1443 40.9213 33.0075 42.7456 34.3561 44.1672H22.8067C22.5932 44.1662 22.3887 44.0796 22.2378 43.9262C22.0868 43.7729 22.0016 43.5651 22.0006 43.3482V39.7819C22.0016 39.565 22.0868 39.3572 22.2378 39.2039C22.3887 39.0505 22.5932 38.9639 22.8067 38.9629L31.894 38.9632ZM46.6217 31.9584C45.3002 30.6158 43.5614 29.7803 41.7015 29.5943C39.8417 29.4083 37.9759 29.8832 36.4221 30.9382C34.8683 31.9933 33.7225 33.563 33.1801 35.3801C32.6377 37.1972 32.7322 39.1491 33.4475 40.9034C34.1627 42.6576 35.4545 44.1056 37.1027 45.0006C38.7509 45.8956 40.6535 46.1823 42.4864 45.8118C44.3193 45.4413 45.9691 44.4365 47.1546 42.9686C48.3401 41.5008 48.988 39.6607 48.988 37.7619C48.988 36.684 48.7791 35.6166 48.3731 34.6208C47.9671 33.6249 47.372 32.7205 46.6217 31.9584Z" fill="#1B4D80"/>
</svg>
