<svg width="61" height="61" viewBox="0 0 61 61" fill="none" xmlns="http://www.w3.org/2000/svg">
<path d="M30.5 61C13.6822 61 0 47.3178 0 30.5C0 13.6822 13.6822 0 30.5 0C47.3178 0 61 13.6822 61 30.5C61 47.3178 47.3178 61 30.5 61ZM30.5 2.40728C15.0094 2.40728 2.40728 15.0094 2.40728 30.5C2.40728 45.9906 15.0094 58.5927 30.5 58.5927C45.9906 58.5927 58.5927 45.9906 58.5927 30.5C58.5927 15.0094 45.9906 2.40728 30.5 2.40728Z" fill="#1B4D80"/>
<path d="M34.1101 36.6053L26.4453 28.5623L18.4404 36.4079L16.7548 34.6891L26.505 25.133L34.1101 33.1164L48.1523 18.3823L49.896 20.0447L34.1101 36.6053Z" fill="#1B4D80"/>
<path d="M49.025 44.388H11.6001V16.3733H14.0074V41.9791H49.025V44.388Z" fill="#1B4D80"/>
</svg>
