<svg width="67" height="67" viewBox="0 0 67 67" fill="none" xmlns="http://www.w3.org/2000/svg">
<path d="M46.3946 53.2643H21.3275V43.6753H46.3946V53.2643ZM23.9509 50.641H43.7713V46.3004H23.9509V50.641Z" fill="#1B4D80"/>
<path d="M33.8593 66.3559C15.7112 66.3559 0.947266 51.592 0.947266 33.4421C0.947266 15.2922 15.7112 0.530029 33.8593 0.530029C52.0074 0.530029 66.7732 15.294 66.7732 33.4421C66.7732 51.5902 52.0092 66.3559 33.8593 66.3559ZM33.8593 3.15338C17.1575 3.15338 3.57061 16.7402 3.57061 33.4421C3.57061 50.1439 17.1575 63.7308 33.8593 63.7308C50.5612 63.7308 64.1498 50.1439 64.1498 33.4421C64.1498 16.7402 50.5612 3.15338 33.8593 3.15338Z" fill="#1B4D80"/>
<path d="M21.1661 35.8035C22.433 36.4584 23.8774 36.1911 24.9074 35.2024C25.4349 34.6946 25.8081 34.0899 26.0414 33.3991C26.1042 33.2106 26.1796 33.1694 26.3805 33.2017C27.9829 33.4475 29.4902 33.1478 30.9149 32.387C31.0261 32.3278 31.1374 32.2632 31.2863 32.1807C31.3007 32.3206 31.3186 32.4193 31.3204 32.518C31.3294 33.0581 31.1858 33.5605 30.8592 33.9822C30.5291 34.4075 30.1792 34.8238 29.7808 35.1844C28.767 36.1031 27.6976 36.9591 26.6963 37.8903C25.103 39.3725 23.951 41.1417 23.4109 43.2734C23.3876 43.3649 23.3786 43.4564 23.3588 43.5479H25.2842C25.3147 43.4367 25.3326 43.3236 25.3667 43.2124C25.9337 41.4342 27.048 40.0328 28.4225 38.8198C29.343 38.007 30.2922 37.2246 31.2074 36.4046C31.559 36.0906 31.8749 35.7281 32.1691 35.3585C33.2063 34.0522 33.4413 32.597 32.9174 31.0197C32.8546 30.8295 32.8797 30.6985 32.9927 30.5371C34.2362 28.7696 34.0801 26.7474 32.9604 25.0104C32.6859 24.5852 32.1189 24.4775 31.699 24.7359C31.2881 24.9907 31.1445 25.5147 31.3688 25.9615C31.4891 26.2019 31.6344 26.4334 31.7403 26.681C32.2319 27.8366 32.0345 28.8898 31.2074 29.8175C29.9154 31.2656 27.642 31.8128 25.8297 31.1328C25.1227 30.8672 24.5557 31.2135 24.4678 31.9654C24.387 32.667 24.1681 33.3111 23.6549 33.8207C23.122 34.3483 22.485 34.4595 21.848 34.0612C21.1787 33.6431 20.5291 33.1855 20.0249 32.5611C19.9083 32.4175 19.806 32.2596 19.7163 32.0981C19.4651 31.6514 19.5171 31.2261 19.8258 30.8224C21.4622 28.6889 23.0915 26.5482 24.7351 24.4201C25.5049 23.4242 26.3357 22.4822 27.2831 21.6478C27.7748 21.2172 27.8411 20.7991 27.4751 20.2446C26.6856 19.0496 25.8799 17.8635 25.0814 16.6721C25.0294 16.5949 24.9809 16.5178 24.8912 16.3832C26.6856 16.3491 28.3238 16.5626 29.5817 17.9353C29.9387 18.3247 30.3891 18.409 30.8144 18.1309C34.1967 15.9346 38.7885 16.2827 41.9824 19.7996C44.0621 22.0892 45.3307 24.7969 45.7614 27.8706C45.9821 29.4407 45.6806 30.9641 45.2643 32.475C44.9342 33.6754 44.6004 34.8794 44.3546 36.0996C44.089 37.422 44.1967 38.7498 44.5161 40.0615C44.5376 40.1458 44.5107 40.2983 44.4515 40.3396C43.6979 40.8474 42.8778 41.2153 41.9771 41.4647C41.733 40.8402 41.6038 40.2068 41.5554 39.5591C41.4334 37.9513 41.7851 36.4118 42.257 34.892C42.876 32.8913 43.2295 30.8547 43.0627 28.7553C42.8132 25.6169 41.6146 22.9469 39.1348 20.9265C38.5319 20.4348 37.8644 20.0473 37.1359 19.7709C36.5868 19.5628 36.0575 19.7727 35.8601 20.2733C35.6627 20.774 35.9121 21.2872 36.4558 21.5061C38.1354 22.1843 39.2999 23.4171 40.1253 24.9871C41.1822 26.995 41.3903 29.1464 41.1355 31.3696C40.9794 32.728 40.5506 34.0199 40.1935 35.3298C39.8185 36.7114 39.5995 38.1128 39.6785 39.5537C39.7557 40.9748 40.2186 42.2811 40.8161 43.5479H42.8814C42.8294 43.4331 42.7756 43.32 42.7199 43.1998C42.8563 43.1514 42.9604 43.1137 43.0662 43.0778C44.159 42.7046 45.1692 42.1788 46.0843 41.4719C46.585 41.0861 46.6872 40.781 46.4953 40.1871C46.0969 38.9436 45.93 37.6696 46.1938 36.3849C46.4289 35.2383 46.7465 34.1078 47.0569 32.9792C47.4588 31.5168 47.7872 30.04 47.6706 28.5184C47.3458 24.3358 45.6663 20.7524 42.6553 17.8492C39.3681 14.6786 34.7117 14.0344 30.6583 16.0764C30.495 16.1589 30.4035 16.123 30.2671 16.0279C29.8939 15.7677 29.526 15.4878 29.1187 15.2922C27.2059 14.3753 25.1999 14.352 23.1651 14.7449C22.3163 14.9082 22.0597 15.6367 22.5622 16.3491C23.2332 17.3001 23.9007 18.2529 24.5611 19.2093C24.8984 19.6974 25.2196 20.1944 25.5426 20.6807C25.5085 20.7309 25.4959 20.756 25.4762 20.7758C24.0658 22.1556 22.8959 23.7329 21.7152 25.3029C20.6314 26.7456 19.5082 28.1595 18.4226 29.6022C18.175 29.9324 17.956 30.3074 17.8268 30.6968C17.4752 31.7518 17.791 32.701 18.428 33.5552C19.1529 34.5241 20.1021 35.2544 21.1661 35.8035Z" fill="#1B4D80"/>
<path d="M43.4645 43.9229H40.5774L40.4769 43.7076C39.7359 42.1393 39.3752 40.8653 39.3034 39.5734C39.2299 38.2294 39.4021 36.8101 39.831 35.231C39.9063 34.9511 39.9871 34.6712 40.066 34.3913C40.3495 33.3954 40.642 32.3654 40.7604 31.3265C41.0332 28.9382 40.7174 26.9196 39.7915 25.1611C38.9356 23.5354 37.798 22.4534 36.314 21.8541C35.573 21.5563 35.2356 20.8331 35.5084 20.1369C35.7829 19.4389 36.5186 19.1375 37.2668 19.421C38.0258 19.7099 38.731 20.119 39.368 20.6375C41.7958 22.6167 43.1649 25.3388 43.4322 28.7283C43.5865 30.6698 43.3174 32.7225 42.6122 35.0049C42.2031 36.3238 41.803 37.8939 41.9268 39.5321C41.9662 40.0596 42.0578 40.5441 42.2085 41.0071C42.9101 40.7846 43.5435 40.4849 44.1338 40.1009C43.7821 38.6277 43.7301 37.291 43.9831 36.0295C44.2235 34.8327 44.5519 33.6394 44.8677 32.4857L44.8964 32.3798C45.2786 30.991 45.6034 29.4891 45.3845 27.9262C44.9646 24.9332 43.7247 22.2848 41.6989 20.0544C38.8243 16.8909 34.4282 16.2288 31.0135 18.4484C30.4429 18.8217 29.7862 18.7212 29.2999 18.1918C28.313 17.117 27.0893 16.803 25.5856 16.7635L26.0898 17.5136C26.6568 18.3551 27.222 19.1949 27.7819 20.0418C28.243 20.7416 28.1569 21.3786 27.5253 21.9331C26.6927 22.6634 25.8745 23.5534 25.0257 24.6515C23.9222 26.0816 22.8241 27.5171 21.7259 28.9508L20.1182 31.052C19.8921 31.3463 19.867 31.6118 20.0374 31.9151C20.1182 32.0586 20.2079 32.1986 20.312 32.326C20.7929 32.9217 21.4281 33.3595 22.0417 33.7435C22.5101 34.0378 22.9622 33.9732 23.3875 33.5533C23.7841 33.1586 24.0083 32.6418 24.0927 31.9222C24.1483 31.4414 24.3708 31.0592 24.7189 30.8474C25.067 30.6339 25.5066 30.6124 25.9588 30.7828C27.6437 31.4144 29.7323 30.9066 30.9256 29.568C31.6702 28.7337 31.821 27.8383 31.3921 26.8281C31.3311 26.6863 31.2557 26.5499 31.1804 26.4136C31.1283 26.3203 31.0781 26.227 31.0297 26.1319C30.7192 25.5128 30.9202 24.7753 31.498 24.4183C32.0955 24.0486 32.8922 24.2209 33.2708 24.8076C34.5484 26.7904 34.5574 28.958 33.2941 30.7541C33.2421 30.8259 33.2457 30.8349 33.269 30.903C33.8378 32.6185 33.5651 34.1975 32.458 35.5917C32.0973 36.0475 31.7779 36.3938 31.4513 36.6845C30.9507 37.133 30.4411 37.5691 29.9297 38.0069C29.5062 38.3694 29.0828 38.7318 28.6647 39.1015C27.1467 40.4418 26.21 41.784 25.7184 43.3272C25.7022 43.3792 25.6897 43.4312 25.6789 43.4833C25.6663 43.5389 25.6538 43.5945 25.6394 43.6501L25.5623 43.9229H22.8851L23.0053 43.3648C23.0161 43.3038 23.0268 43.241 23.0412 43.18C23.5705 41.0896 24.7135 39.2163 26.4343 37.6157C26.987 37.1025 27.5594 36.6127 28.1318 36.1228C28.5983 35.7209 29.0666 35.3207 29.5224 34.908C29.9351 34.533 30.2922 34.0952 30.5559 33.7543C30.7677 33.4833 30.8915 33.1639 30.9274 32.8015C29.4632 33.5497 27.9326 33.8117 26.3715 33.582C26.1042 34.3303 25.7022 34.9565 25.1621 35.4751C24.003 36.5894 22.3665 36.8495 20.9902 36.139C19.7988 35.5217 18.8334 34.7286 18.1247 33.7794C17.3333 32.7207 17.1108 31.6441 17.4679 30.5783C17.6007 30.1817 17.8196 29.778 18.1211 29.3778C18.6576 28.6619 19.2049 27.9549 19.7539 27.2462C20.3102 26.5266 20.8664 25.8053 21.4137 25.0786L21.5142 24.944C22.6088 23.4834 23.741 21.9743 25.0688 20.6483L24.9414 20.4563C24.7153 20.1118 24.4856 19.7637 24.2488 19.421C23.5885 18.4664 22.921 17.5136 22.2517 16.5626C21.9287 16.1068 21.8426 15.6026 22.013 15.1773C22.1799 14.761 22.5621 14.4757 23.0896 14.3735C25.4797 13.9123 27.5037 14.1025 29.2766 14.9512C29.6444 15.1271 29.9746 15.3621 30.2922 15.5864L30.477 15.7174C34.6848 13.6234 39.56 14.3447 42.9101 17.5764C45.982 20.5389 47.7064 24.2101 48.0383 28.4861C48.1622 30.0741 47.8105 31.6316 47.4139 33.076L47.3529 33.2967C47.0676 34.3303 46.7733 35.3979 46.5562 36.4584C46.3283 37.5673 46.4252 38.7498 46.8487 40.0704C47.0837 40.8079 46.933 41.2852 46.3086 41.7661C45.4006 42.4677 44.3653 43.0221 43.2277 43.4151L43.4645 43.9229ZM41.0547 43.1728H42.2928L42.2228 43.0221L42.9424 42.7225C44.019 42.3546 44.9987 41.8343 45.8528 41.1739C46.2332 40.8797 46.2781 40.7415 46.1363 40.2983C45.6734 38.852 45.5711 37.5475 45.8241 36.3076C46.0466 35.2239 46.3445 34.1437 46.6316 33.0975L46.6908 32.8768C47.1304 31.2835 47.3996 29.9359 47.2919 28.5453C46.9743 24.4577 45.3253 20.948 42.3897 18.1165C39.2245 15.0643 34.7942 14.4093 30.8215 16.4083C30.4788 16.5823 30.2276 16.4603 30.0463 16.3329L29.8579 16.2001C29.5511 15.983 29.2604 15.7784 28.95 15.6295C27.3046 14.8382 25.4869 14.6749 23.2296 15.1127C22.9622 15.1648 22.7756 15.2868 22.7074 15.459C22.6339 15.6421 22.6895 15.8879 22.8618 16.1319C23.5328 17.0829 24.2003 18.0375 24.8643 18.9957C25.1047 19.342 25.3362 19.6955 25.5658 20.0436L25.9911 20.686L25.844 20.8959C25.8009 20.9605 25.7758 21 25.7363 21.0395C24.3852 22.3619 23.2296 23.9033 22.1117 25.3926L22.0112 25.5272C21.4622 26.2575 20.9041 26.9806 20.3443 27.7037C19.7988 28.4089 19.2533 29.1141 18.7186 29.8264C18.471 30.1566 18.2844 30.4975 18.1785 30.8133C17.9004 31.6441 18.0798 32.4659 18.724 33.3272C19.3646 34.1849 20.2438 34.9063 21.3348 35.4697C22.4365 36.0385 23.7033 35.8321 24.6435 34.9314C25.1173 34.4756 25.4672 33.9212 25.6825 33.2788C25.8045 32.9181 26.0467 32.7692 26.4343 32.8284C27.9075 33.0545 29.3519 32.7943 30.7336 32.0532L31.5949 31.5741L31.6684 32.2632C31.681 32.3529 31.6882 32.43 31.69 32.5054C31.7007 33.1496 31.5141 33.7381 31.1499 34.2083C30.8664 34.5743 30.4824 35.0462 30.0266 35.4589C29.5655 35.877 29.0935 36.2825 28.6198 36.6863C28.0546 37.1707 27.4894 37.6534 26.9457 38.1594C25.3846 39.6111 24.3331 41.2959 23.8181 43.1675H24.9827C24.9899 43.1423 24.997 43.1172 25.0042 43.0921C25.5318 41.4395 26.5671 39.9466 28.1677 38.5326C28.5893 38.1612 29.0146 37.797 29.4417 37.4309C29.9477 36.9967 30.4537 36.5642 30.9507 36.1192C31.245 35.8573 31.5357 35.5397 31.8694 35.1198C32.824 33.9176 33.0483 32.6131 32.5567 31.1309C32.458 30.8349 32.4974 30.5765 32.6805 30.3145C33.7589 28.7821 33.7445 26.9196 32.641 25.206C32.4831 24.9619 32.1457 24.892 31.8909 25.0499C31.6451 25.2006 31.5626 25.5182 31.6989 25.7873C31.742 25.8753 31.7905 25.9596 31.8371 26.0457C31.925 26.2036 32.0094 26.3615 32.0794 26.5266C32.6177 27.7952 32.4113 29.0172 31.4818 30.0597C30.0912 31.6172 27.6563 32.2147 25.6914 31.4754C25.46 31.3893 25.2518 31.3893 25.1065 31.479C24.9594 31.5688 24.8643 31.7536 24.8355 32.0012C24.7315 32.8858 24.43 33.5659 23.9115 34.0791C23.2386 34.7448 22.4114 34.8524 21.6416 34.3715C20.9723 33.9535 20.2761 33.4708 19.7252 32.7889C19.605 32.6382 19.4884 32.4659 19.3807 32.2739C19.0631 31.7051 19.1098 31.1202 19.5207 30.5854L21.1284 28.4861C22.2266 27.0506 23.3247 25.6133 24.43 24.1832C25.3093 23.0456 26.158 22.1215 27.0282 21.3589C27.3817 21.0485 27.4122 20.8331 27.1538 20.4438C26.5958 19.6004 26.0306 18.7607 25.4654 17.9227L24.1914 16.0153L24.8732 16.0027C26.6173 15.9722 28.4458 16.1463 29.8472 17.6751C30.2078 18.068 30.5039 17.8724 30.599 17.8096C34.3295 15.3855 39.1204 16.0978 42.248 19.5412C44.3779 21.8846 45.6806 24.6677 46.122 27.8132C46.3606 29.5142 46 31.1722 45.616 32.57L45.5873 32.6759C45.2732 33.8171 44.9485 34.9978 44.7134 36.1695C44.4801 37.3322 44.5322 38.5757 44.8713 39.9681C44.918 40.1547 44.8821 40.4885 44.6524 40.6446C43.8719 41.1703 43.0267 41.5543 42.0685 41.8199L41.742 41.9114L41.6181 41.5956C41.3723 40.9676 41.227 40.3073 41.1713 39.5805C41.0386 37.8149 41.4584 36.1605 41.8891 34.7735C42.5674 32.5844 42.8257 30.6231 42.6786 28.7785C42.4238 25.5559 41.1821 23.0815 38.8871 21.2099C38.3129 20.7434 37.6759 20.3738 36.9923 20.1136C36.6388 19.9808 36.3194 20.0957 36.1974 20.4043C36.0772 20.7093 36.2333 21.0108 36.5868 21.1525C38.243 21.8218 39.5044 23.0169 40.4464 24.8058C41.4441 26.7025 41.7886 28.8611 41.4979 31.4055C41.3723 32.5054 41.0709 33.5659 40.7784 34.5904C40.6994 34.8668 40.6205 35.1431 40.5451 35.4212C40.1378 36.9213 39.9727 38.2635 40.0427 39.5249C40.1145 40.6643 40.4249 41.7948 41.0547 43.1728Z" fill="#1B4D80"/>
</svg>
