<svg width="68" height="68" viewBox="0 0 68 68" fill="none" xmlns="http://www.w3.org/2000/svg">
<path d="M33.5537 45.0512C33.0159 45.0512 32.4816 44.9071 32.0021 44.6191C29.0174 42.8176 22.0579 36.2483 21.8956 14.1737L21.8865 12.8445H45.3031L45.3669 14.0971C45.4161 15.047 46.4335 37.459 35.2038 44.568C34.6951 44.8889 34.1226 45.0512 33.5537 45.0512ZM24.5558 15.4846C24.9715 35.7141 31.3767 41.1584 33.3659 42.3582C33.4899 42.4348 33.654 42.4256 33.7926 42.3381C42.3256 36.9339 42.8015 20.2106 42.7596 15.4864H24.5558V15.4846Z" fill="#1B4D80"/>
<path d="M40.3146 54.2278H26.8276L31.4369 42.6316H35.6597L40.3146 54.2278ZM30.7204 51.5876H36.4109L33.8765 45.2717H33.231L30.7204 51.5876Z" fill="#1B4D80"/>
<path d="M37.0089 42.885C36.4655 42.885 35.9568 42.5477 35.7654 42.0062C35.5211 41.3188 35.8821 40.564 36.5695 40.3215C40.2234 39.027 52.0474 34.0548 50.8076 24.4224C50.6016 22.8233 49.9233 22.4714 49.7008 22.3566C48.286 21.6236 45.6258 22.6902 44.8053 23.1205C44.1617 23.4597 43.3631 23.2153 43.0221 22.5699C42.6812 21.9263 42.9255 21.1295 43.5691 20.7885C44.014 20.5497 48.0161 18.5112 50.9115 20.01C51.8852 20.5132 53.1104 21.6291 53.4277 24.085C54.4359 31.9088 48.4628 38.9103 37.4519 42.8103C37.3043 42.8613 37.1547 42.885 37.0089 42.885Z" fill="#1B4D80"/>
<path d="M30.3867 42.8851C30.2408 42.8851 30.0913 42.8614 29.9455 42.8085C19.1953 38.9997 13.3845 32 14.4037 24.0833C14.7209 21.6255 15.9462 20.5096 16.9198 20.0082C19.8152 18.5095 23.8155 20.5498 24.2622 20.7868C24.9059 21.1277 25.1502 21.9282 24.8092 22.5718C24.4665 23.2154 23.6679 23.4597 23.0261 23.1188C22.2056 22.6867 19.5472 21.6218 18.1323 22.3548C17.9099 22.4697 17.2316 22.8234 17.0256 24.4206C15.7675 34.1898 27.2743 39.0598 30.8298 40.3197C31.5171 40.5622 31.8763 41.3189 31.6338 42.0045C31.4387 42.546 30.93 42.8851 30.3867 42.8851Z" fill="#1B4D80"/>
<path d="M33.9112 67.4176C15.4703 67.4176 0.468262 52.4156 0.468262 33.9747C0.468262 15.5321 15.4703 0.530029 33.9112 0.530029C52.352 0.530029 67.354 15.5321 67.354 33.9747C67.3559 52.4156 52.3538 67.4176 33.9112 67.4176ZM33.9112 3.17016C16.9253 3.17016 3.10839 16.9889 3.10839 33.9747C3.10839 50.9587 16.9272 64.7775 33.9112 64.7775C50.8952 64.7775 64.7139 50.9587 64.7139 33.9747C64.7157 16.9889 50.897 3.17016 33.9112 3.17016Z" fill="#1B4D80"/>
</svg>
