<svg width="63" height="63" viewBox="0 0 63 63" fill="none" xmlns="http://www.w3.org/2000/svg">
<path d="M31.4991 63C14.1301 63 0 48.8699 0 31.5009C0 14.1301 14.1301 0 31.4991 0C48.8681 0 62.9983 14.1301 62.9983 31.5009C63 48.8699 48.8699 63 31.4991 63ZM31.4991 2.48668C15.5006 2.48668 2.48668 15.5023 2.48668 31.5009C2.48668 47.4977 15.5023 60.5133 31.4991 60.5133C47.496 60.5133 60.5116 47.4977 60.5116 31.5009C60.5133 15.5023 47.4977 2.48668 31.4991 2.48668Z" fill="#1B4D80"/>
<path d="M48.6887 45.1852L38.692 35.1882C40.701 32.8363 41.9158 29.7865 41.9158 26.4584C41.9158 19.0378 35.8782 13 28.458 13C21.0376 13 15 19.0378 15 26.4584C15 33.8788 21.0376 39.9166 28.458 39.9166C31.7867 39.9166 34.8371 38.7013 37.1891 36.6914L47.1856 46.6885C47.3925 46.8965 47.6644 47 47.9365 47C48.2086 47 48.4805 46.8965 48.6887 46.6885C49.1038 46.2732 49.1038 45.6003 48.6887 45.1852ZM28.458 37.7916C22.2093 37.7916 17.1249 32.7074 17.1249 26.4584C17.1249 20.2095 22.2093 15.125 28.458 15.125C34.7068 15.125 39.7908 20.2095 39.7908 26.4584C39.7908 32.7074 34.7068 37.7916 28.458 37.7916Z" fill="#1B4D80"/>
</svg>
