<svg width="63" height="63" viewBox="0 0 63 63" fill="none" xmlns="http://www.w3.org/2000/svg">
<path d="M31.4991 63C14.1301 63 0 48.8699 0 31.5009C0 14.1301 14.1301 0 31.4991 0C48.8681 0 62.9983 14.1301 62.9983 31.5009C63 48.8699 48.8699 63 31.4991 63ZM31.4991 2.48668C15.5006 2.48668 2.48668 15.5023 2.48668 31.5009C2.48668 47.4977 15.5023 60.5133 31.4991 60.5133C47.496 60.5133 60.5116 47.4977 60.5116 31.5009C60.5133 15.5023 47.4977 2.48668 31.4991 2.48668Z" fill="#1B4D80"/>
<path d="M28.717 21.6899C28.3935 21.492 27.9529 21.5833 27.7375 21.8656C25.2735 25.5466 22.1343 27.9806 17.1395 30.0988L13.728 31.5456C12.0222 32.269 11.1859 34.2524 11.9268 35.9994L13.9079 40.6709C14.6313 42.3766 16.656 43.1954 18.3618 42.4721L19.8644 41.8348L25.6309 50.4614C26.1373 51.2052 27.1271 51.5043 27.9808 51.1423L30.5403 50.0568C31.0687 49.8327 31.4522 49.3818 31.6052 48.8376C31.7583 48.2934 31.696 47.6964 31.3497 47.2198L26.1828 39.4418C29.2398 38.6246 32.0736 38.5255 35.0653 39.0297C35.2218 39.0588 35.3615 39.0483 35.4821 38.9971C35.6852 38.911 35.8365 38.7027 35.89 38.489C35.9727 38.1188 35.7195 37.747 35.3081 37.6818C30.6941 36.8584 26.4854 37.445 21.2441 39.6678L17.8325 41.1146C16.817 41.5453 15.66 41.0774 15.2293 40.0619L13.2642 35.4325C12.8336 34.417 13.3015 33.26 14.317 32.8293L17.7285 31.3826C22.9679 29.1606 26.3154 26.5428 28.9326 22.6528C29.1312 22.3308 29.0413 21.8894 28.717 21.6899ZM24.7889 39.8905L30.2107 48.0398C30.3381 48.2254 30.3074 48.3826 30.302 48.4803C30.2951 48.5788 30.2088 48.7108 30.0057 48.797L27.4462 49.8824C27.2019 49.986 26.9714 49.8928 26.8265 49.666L21.2034 41.2671L21.8127 41.0087C22.8289 40.5796 23.82 40.206 24.7889 39.8905Z" fill="#1B4D80"/>
<path d="M15.778 34.4639C15.4131 34.6187 15.2479 35.0238 15.4033 35.3904C15.5581 35.7554 15.9633 35.9205 16.3298 35.7651L20.1476 34.146C20.5126 33.9913 20.6777 33.5861 20.5223 33.2195C20.3675 32.8546 19.9623 32.6894 19.5958 32.8448L15.778 34.4639Z" fill="#1B4D80"/>
<path d="M37.8833 21.83L35.4022 15.9798C34.6789 14.274 32.7123 13.4773 31.0049 14.2014C29.2991 14.9248 28.5024 16.8914 29.2265 18.5988L38.4429 40.3312C39.1663 42.0369 41.1329 42.8336 42.8403 42.1095C44.5461 41.3861 45.3427 39.4195 44.6186 37.7121L42.1383 31.8635C44.3567 30.5389 45.3285 27.635 44.243 25.0754C43.1576 22.5159 40.3756 21.1565 37.8833 21.83ZM43.3175 38.2639C43.7482 39.2795 43.2803 40.4364 42.2647 40.8671C41.2492 41.2978 40.0923 40.8299 39.6616 39.8144L30.4452 18.082C30.0145 17.0664 30.4824 15.9095 31.4979 15.4788C32.5135 15.0481 33.6704 15.516 34.1011 16.5315L43.3175 38.2639ZM41.587 30.5636L38.4344 23.1295C40.2384 22.7482 42.1515 23.7585 42.9435 25.6261C43.7362 27.4954 43.1136 29.5324 41.587 30.5636Z" fill="#1B4D80"/>
<path d="M50.6104 21.5602L46.5896 23.2654C46.2246 23.4202 46.0594 23.8254 46.2149 24.1919C46.3696 24.5569 46.7748 24.722 47.1414 24.5666L51.1622 22.8614C51.5272 22.7066 51.6924 22.3015 51.5369 21.9349C51.3815 21.5684 50.977 21.4048 50.6104 21.5602Z" fill="#1B4D80"/>
<path d="M52.0658 27.7015L47.7278 27.5287C47.3338 27.5048 47.0375 27.8214 47.012 28.216C46.9881 28.6099 47.3047 28.9063 47.6993 28.9318L52.0374 29.1046C52.1358 29.1116 52.2167 29.0772 52.3389 29.0254C52.5833 28.9218 52.7742 28.6967 52.7522 28.4196C52.7367 28.0386 52.4422 27.6842 52.0658 27.7015Z" fill="#1B4D80"/>
<path d="M44.6161 20.9868C44.6971 20.9525 44.8193 20.9007 44.8827 20.8251L47.7739 17.5865C48.0306 17.2866 47.9973 16.8683 47.7372 16.5948C47.4374 16.3382 47.019 16.3714 46.7455 16.6316L43.8153 19.8887C43.5586 20.1885 43.5919 20.6068 43.852 20.8803C44.0772 21.0713 44.3734 21.0898 44.6161 20.9868Z" fill="#1B4D80"/>
</svg>
