<svg width="75" height="69" viewBox="0 0 75 69" fill="none" xmlns="http://www.w3.org/2000/svg">
<g clip-path="url(#clip0_199_875)">
<path d="M45.3367 27.6908C45.3367 21.2234 40.0978 15.9845 33.6304 15.9845C27.163 15.9845 21.9241 21.2234 21.9241 27.6908C21.9241 34.1582 27.163 39.3971 33.6304 39.3971C40.0978 39.3971 45.3367 34.1582 45.3367 27.6908Z" stroke="white" stroke-width="1.53" stroke-linecap="round" stroke-linejoin="round"/>
<path d="M45.1489 47.1363C41.7454 45.2142 37.8144 44.1086 33.6305 44.1086C23.615 44.1086 15.0593 50.4025 11.7208 59.2545" stroke="white" stroke-width="1.53" stroke-linecap="round" stroke-linejoin="round"/>
<path d="M44.8453 31.051L37.3157 33.8908H32.4453C32.0262 33.8908 31.6865 33.5512 31.6865 33.1321V32.8214C31.6865 32.4023 32.0262 32.0626 32.4453 32.0626H34.8949C35.314 32.0626 35.6537 32.4023 35.6537 32.8214" stroke="white" stroke-width="1.53" stroke-linecap="round" stroke-linejoin="round"/>
<path d="M65.7505 43.0969C66.4731 40.3799 66.8561 37.5256 66.8561 34.5773C66.8561 16.2735 52.0137 1.43106 33.7027 1.43106C15.3916 1.43106 0.556396 16.2735 0.556396 34.5773C0.556396 52.8811 15.3989 67.7308 33.7099 67.7308C36.846 67.7308 39.8738 67.2972 42.7498 66.4807" stroke="white" stroke-width="1.53" stroke-linecap="round" stroke-linejoin="round"/>
<path d="M54.4128 48.278H55.6918C57.7946 48.278 59.4999 49.9834 59.4999 52.0862V52.2524C59.4999 53.7555 58.7918 55.1645 57.5922 56.0678L51.4645 60.6636C50.1204 61.6753 49.3256 63.2578 49.3256 64.9415V66.6758C49.3256 67.0515 49.6291 67.355 50.0048 67.355H59.4999" stroke="white" stroke-width="1.53" stroke-linecap="round" stroke-linejoin="round"/>
<path d="M54.4128 48.278C52.0209 48.278 50.0121 49.9328 49.4701 52.1585" stroke="white" stroke-width="1.53" stroke-linecap="round" stroke-linejoin="round"/>
<path d="M71.5748 48.278L61.3932 60.9888H74.4508" stroke="white" stroke-width="1.53" stroke-linecap="round" stroke-linejoin="round"/>
<path d="M71.5748 48.278V67.3478" stroke="white" stroke-width="1.53" stroke-linecap="round" stroke-linejoin="round"/>
</g>
<defs>
<clipPath id="clip0_199_875">
<rect width="75" height="67.4053" fill="white" transform="translate(0 0.874634)"/>
</clipPath>
</defs>
</svg>
