<svg width="86" height="69" viewBox="0 0 86 69" fill="none" xmlns="http://www.w3.org/2000/svg">
<g clip-path="url(#clip0_199_874)">
<path d="M74.7371 33.2125C83.371 29.6362 87.471 19.7379 83.8947 11.104C80.3184 2.47004 70.4201 -1.62998 61.7862 1.94631C53.1523 5.5226 49.0522 15.4209 52.6285 24.0549C56.2048 32.6888 66.1031 36.7888 74.7371 33.2125Z" stroke="#042341" stroke-width="1.42" stroke-linecap="round" stroke-linejoin="round"/>
<path d="M73.898 10.0526H66.3748C65.376 10.0526 64.4182 10.4455 63.7142 11.1577C63.0102 11.8617 62.6173 12.8195 62.6173 13.8183C62.6173 14.817 63.0102 15.7748 63.7142 16.4788C64.4182 17.1828 65.376 17.584 66.3748 17.584H70.1323C71.131 17.584 72.0888 17.9769 72.7929 18.6809C73.4969 19.385 73.898 20.3428 73.898 21.3415C73.898 22.3402 73.5051 23.298 72.7929 24.0021C72.0888 24.7061 71.131 25.099 70.1323 25.099H62.6091" stroke="#042341" stroke-width="1.42" stroke-linecap="round" stroke-linejoin="round"/>
<path d="M68.2576 6.29504V10.0526" stroke="#042341" stroke-width="1.42" stroke-linecap="round" stroke-linejoin="round"/>
<path d="M68.2576 25.099V28.8566" stroke="#042341" stroke-width="1.42" stroke-linecap="round" stroke-linejoin="round"/>
<path d="M83.4842 36.9856V50.2311C83.4842 52.556 81.6014 54.4388 79.2764 54.4388H4.78083C2.45592 54.4388 0.573059 52.556 0.573059 50.2311V6.28685C0.581245 3.96193 2.4641 2.07907 4.78083 2.07907H49.9939" stroke="#042341" stroke-width="1.42" stroke-linecap="round" stroke-linejoin="round"/>
<path d="M26.7611 67.5288H57.3043" stroke="#042341" stroke-width="1.42" stroke-linecap="round" stroke-linejoin="round"/>
<path d="M42.0286 67.5288V54.4388" stroke="#042341" stroke-width="1.42" stroke-linecap="round" stroke-linejoin="round"/>
</g>
<defs>
<clipPath id="clip0_199_874">
<rect width="85.76" height="68.0366" fill="white" transform="translate(0 0.0734253)"/>
</clipPath>
</defs>
</svg>
