<svg width="133" height="133" viewBox="0 0 133 133" fill="none" xmlns="http://www.w3.org/2000/svg">
<path d="M66.5 0C29.83 0 0 29.83 0 66.5C0 103.17 29.83 133 66.5 133C103.17 133 133 103.17 133 66.5C133 29.83 103.17 0 66.5 0ZM98.3729 50.8729L60.3729 88.8729C59.4229 89.7754 58.2355 90.2504 57.0003 90.2504C55.7651 90.2504 54.5777 89.7754 53.6277 88.8729L34.6277 69.8729C32.7752 68.0203 32.7752 64.9803 34.6277 63.1279C36.4803 61.2755 39.5203 61.2753 41.3727 63.1279L56.9998 78.8021L91.627 44.1279C93.4795 42.2753 96.5195 42.2753 98.372 44.1279C100.224 45.9805 100.225 49.0205 98.3729 50.8729Z" fill="#05B742"/>
</svg>
