<svg width="18" height="17" viewBox="0 0 18 17" fill="none" xmlns="http://www.w3.org/2000/svg">
<path d="M0.631597 16.9997C0.572807 16.9997 0.512934 16.9916 0.453782 16.9741C0.119433 16.8747 -0.0724479 16.5193 0.0256567 16.18C0.625466 14.1046 3.60323 12.8452 5.2032 12.1685C5.51194 12.038 5.8618 11.8899 5.95017 11.8322C5.97866 11.8131 5.99525 11.7982 6.00463 11.7886C3.631 9.62475 3.44489 6.72383 3.44489 5.8797C3.44489 2.95758 5.35324 0 9.00007 0C12.6469 0 14.5552 2.95795 14.5552 5.8797C14.5552 6.72274 14.3699 9.61854 12.0027 11.7817C12.0013 11.7865 11.9995 11.7908 11.998 11.7956C12.0063 11.7996 12.0233 11.8146 12.0518 11.8336C12.138 11.8899 12.4878 12.038 12.7966 12.1685C14.3965 12.8452 17.3743 14.1043 17.9745 16.18C18.0722 16.5193 17.8807 16.8743 17.546 16.9741C17.212 17.0732 16.8607 16.8794 16.7626 16.5398C16.3323 15.0504 13.6153 13.9014 12.31 13.349C11.8509 13.1548 11.5475 13.0265 11.3643 12.907C10.9319 12.6211 10.7908 12.2657 10.749 12.0175C10.6574 11.4794 10.9492 11.0593 11.0087 10.9803C11.0339 10.9467 11.0624 10.9156 11.0938 10.8878C12.7143 9.44561 13.2921 7.35483 13.2921 5.87933C13.2921 3.66352 11.9486 1.27918 8.99935 1.27918C6.05008 1.27918 4.70655 3.66389 4.70655 5.87933C4.70655 7.35483 5.28399 9.44525 6.90488 10.8878C6.9359 10.9156 6.96476 10.9467 6.99 10.9803C7.04951 11.0593 7.34094 11.4794 7.24969 12.0175C7.20749 12.2657 7.06683 12.6207 6.63618 12.9055C6.45115 13.0265 6.14782 13.1548 5.68831 13.3493C4.38302 13.9014 1.66674 15.05 1.23609 16.5398C1.15638 16.8187 0.904631 16.9997 0.631597 16.9997Z" fill="black"/>
</svg>
