<svg width="54" height="54" viewBox="0 0 54 54" fill="none" xmlns="http://www.w3.org/2000/svg">
<path d="M15.114 23.1228C14.5617 23.1228 14.114 23.5705 14.114 24.1228C14.114 24.6751 14.5617 25.1228 15.114 25.1228L15.114 23.1228ZM37.9439 24.8299C38.3344 24.4394 38.3344 23.8062 37.9439 23.4157L31.58 17.0517C31.1894 16.6612 30.5563 16.6612 30.1657 17.0517C29.7752 17.4423 29.7752 18.0754 30.1658 18.4659L35.8226 24.1228L30.1658 29.7797C29.7752 30.1702 29.7752 30.8033 30.1658 31.1939C30.5563 31.5844 31.1894 31.5844 31.58 31.1939L37.9439 24.8299ZM15.114 25.1228L37.2368 25.1228L37.2368 23.1228L15.114 23.1228L15.114 25.1228Z" fill="white"/>
<path d="M15.114 23.1228C14.5617 23.1228 14.114 23.5705 14.114 24.1228C14.114 24.6751 14.5617 25.1228 15.114 25.1228L15.114 23.1228ZM37.9439 24.8299C38.3344 24.4394 38.3344 23.8062 37.9439 23.4157L31.58 17.0517C31.1894 16.6612 30.5563 16.6612 30.1657 17.0517C29.7752 17.4423 29.7752 18.0754 30.1658 18.4659L35.8226 24.1228L30.1658 29.7797C29.7752 30.1702 29.7752 30.8033 30.1658 31.1939C30.5563 31.5844 31.1894 31.5844 31.58 31.1939L37.9439 24.8299ZM15.114 25.1228L37.2368 25.1228L37.2368 23.1228L15.114 23.1228L15.114 25.1228Z" fill="white"/>
<g filter="url(#filter0_d_196_590)">
<circle cx="27.4518" cy="24.5482" r="22.0482" transform="rotate(180 27.4518 24.5482)" stroke="white" shape-rendering="crispEdges"/>
</g>
<defs>
<filter id="filter0_d_196_590" x="0.903564" y="0" width="53.0964" height="53.0964" filterUnits="userSpaceOnUse" color-interpolation-filters="sRGB">
<feFlood flood-opacity="0" result="BackgroundImageFix"/>
<feColorMatrix in="SourceAlpha" type="matrix" values="0 0 0 0 0 0 0 0 0 0 0 0 0 0 0 0 0 0 127 0" result="hardAlpha"/>
<feOffset dy="2"/>
<feGaussianBlur stdDeviation="2"/>
<feComposite in2="hardAlpha" operator="out"/>
<feColorMatrix type="matrix" values="0 0 0 0 0.868333 0 0 0 0 0.848072 0 0 0 0 0.848072 0 0 0 0.25 0"/>
<feBlend mode="normal" in2="BackgroundImageFix" result="effect1_dropShadow_196_590"/>
<feBlend mode="normal" in="SourceGraphic" in2="effect1_dropShadow_196_590" result="shape"/>
</filter>
</defs>
</svg>
