<svg width="14" height="14" viewBox="0 0 14 14" fill="none" xmlns="http://www.w3.org/2000/svg">
<path d="M7 0C5.14368 0 3.3632 0.737504 2.04992 2.04992C0.737424 3.36304 0 5.14368 0 7C0 8.85632 0.737504 10.6368 2.04992 11.9501C3.36304 13.2626 5.14368 14 7 14C8.85632 14 10.6368 13.2625 11.9501 11.9501C13.2626 10.637 14 8.85632 14 7C14 5.14368 13.2625 3.3632 11.9501 2.04992C10.637 0.737424 8.85632 0 7 0ZM7 13C5.40875 13 3.88256 12.3681 2.75744 11.2426C1.63181 10.1176 1 8.59136 1 7C1 5.40864 1.63187 3.88256 2.75744 2.75744C3.88243 1.63181 5.40864 1 7 1C8.59136 1 10.1174 1.63187 11.2426 2.75744C12.3682 3.88243 13 5.40864 13 7C13 8.59136 12.3681 10.1174 11.2426 11.2426C10.1176 12.3682 8.59136 13 7 13ZM9.85504 9.14496C9.94941 9.23871 10.0032 9.36683 10.0032 9.49997C10.0032 9.6331 9.94941 9.76122 9.85504 9.85498C9.76129 9.94935 9.63317 10.0031 9.50003 10.0031C9.3669 10.0031 9.23878 9.94935 9.14502 9.85498L6.94006 7.64506C6.65882 7.36381 6.50069 6.98256 6.50006 6.58506V2.5001C6.50006 2.22384 6.72381 2.0001 7.00006 2.0001C7.27632 2.0001 7.50006 2.22384 7.50006 2.5001V6.58506C7.49944 6.71818 7.55131 6.84568 7.64506 6.94006L9.85504 9.14496Z" fill="white"/>
</svg>
