<svg width="61" height="60" viewBox="0 0 61 60" fill="none" xmlns="http://www.w3.org/2000/svg">
<ellipse cx="30.5" cy="29.5108" rx="30.5" ry="29.5135" fill="#D2CCC3"/>
<path d="M36.899 29.9463L24.1131 37.0895C23.9876 37.1596 23.8453 37.1966 23.7004 37.1966C23.5555 37.1966 23.4131 37.1597 23.2876 37.0896C23.1622 37.0195 23.058 36.9186 22.9855 36.7972C22.9131 36.6757 22.875 36.538 22.875 36.3978V22.1114C22.875 21.9712 22.9131 21.8334 22.9855 21.712C23.058 21.5906 23.1622 21.4897 23.2876 21.4196C23.4131 21.3495 23.5555 21.3126 23.7004 21.3126C23.8453 21.3126 23.9876 21.3496 24.1131 21.4197L36.899 28.5629C37.0245 28.633 37.1287 28.7338 37.2012 28.8552C37.2736 28.9766 37.3118 29.1144 37.3118 29.2546C37.3118 29.3948 37.2736 29.5326 37.2012 29.654C37.1287 29.7754 37.0245 29.8762 36.899 29.9463Z" fill="white"/>
</svg>
